<svg width="382" height="474" viewBox="0 0 382 474" fill="none" xmlns="http://www.w3.org/2000/svg">
<path d="M146.579 147.709V195.561H107.885V426.149H195.535V381.821H242.619V442.922C242.619 460.117 228.889 474 212.039 474H91.3125C74.3928 474 60.7316 460.047 60.7314 442.922V329.248H0.5V281.397H60.8008V147.709H146.579ZM211.97 0C228.89 1.50147e-06 242.55 13.9541 242.55 31.0791V142.85H351.42C368.34 142.85 382 156.803 382 173.928V293.31C382 310.434 368.34 324.387 351.42 324.388H288.733V276.537H334.916V190.771H242.55V324.388H156.079V276.537H195.466V47.9219H107.746V95.3506H60.6621V31.0791C60.6621 13.8836 74.3927 -1.49532e-06 91.2432 0H211.97Z" fill="#247CFF" fill-opacity="0.1"/>
</svg>
